<svg
  width="64"
  height="64"
  viewBox="0 0 64 64"
  fill="none"
  xmlns="http://www.w3.org/2000/svg"
>
  <path
    d="M7.6178 22.3113L26.4119 3.51727H37.6883L47.2562 13.0852L38.03 22.3113L56.8241 41.1054L37.6883 60.2412H26.4119L16.844 50.6733L26.4119 41.1054L7.6178 22.3113Z"
    fill="white"
  />
  <path
    fill-rule="evenodd"
    clip-rule="evenodd"
    d="M28.1754 4.08687L36.3005 12.212L45.7579 12.212L37.6327 4.08687L28.1754 4.08687ZM26.1589 4.00337C25.6853 3.52979 26.0207 2.72003 26.6905 2.72003L37.8875 2.72003C38.0869 2.72003 38.2781 2.79924 38.4191 2.94022L47.7744 12.2955C48.2479 12.7691 47.9125 13.5788 47.2428 13.5788H36.0457C35.8464 13.5788 35.6552 13.4996 35.5142 13.3586L26.1589 4.00337Z"
    fill="#343B57"
  />
  <path
    fill-rule="evenodd"
    clip-rule="evenodd"
    d="M16.5504 12.4121L16.5458 12.4167L7.10678 21.8558C6.8132 22.1494 6.8132 22.6254 7.10678 22.9189L16.5472 32.3594L16.5504 32.3626L25.5107 41.3229C25.5374 41.3496 25.5374 41.3929 25.5107 41.4196L16.5987 50.3316C16.3051 50.6252 16.3051 51.1012 16.5987 51.3948L25.994 60.7901C26.2876 61.0837 26.7636 61.0837 27.0571 60.7901L36.4524 51.3948C36.4672 51.38 36.4813 51.3647 36.4946 51.349C36.4973 51.3459 36.5002 51.343 36.5033 51.3403C36.519 51.327 36.5343 51.3129 36.5491 51.2981L45.9444 41.9028C46.238 41.6092 46.238 41.1333 45.9444 40.8397L27.5404 22.4357C27.5137 22.409 27.5137 22.3657 27.5404 22.339L36.4524 13.427C36.746 13.1334 36.746 12.6574 36.4524 12.3638L27.0571 2.96853C26.7636 2.67495 26.2876 2.67495 25.994 2.96853L16.5504 12.4121ZM36.9903 48.9516C36.9824 48.9443 36.9822 48.932 36.9897 48.9245L44.4946 41.4196C44.5213 41.3929 44.5213 41.3496 44.4946 41.3229L26.0906 22.9189C25.7971 22.6253 25.7971 22.1494 26.0906 21.8558L35.0027 12.9437C35.0294 12.917 35.0294 12.8738 35.0027 12.8471L26.5739 4.41829C26.5472 4.3916 26.5039 4.3916 26.4772 4.41829L17.5214 13.3742L17.5169 13.3787L8.55654 22.339C8.52985 22.3657 8.52985 22.409 8.55654 22.4357L17.5169 31.396L17.52 31.3992L27.4541 41.3333C27.4807 41.3599 27.4807 41.4032 27.4541 41.4299L26.541 42.3429C26.5382 42.3458 26.5336 42.3458 26.5307 42.3429C26.5279 42.3401 26.5233 42.3401 26.5204 42.3429L18.0484 50.8149C18.0218 50.8416 18.0218 50.8848 18.0484 50.9115L26.4772 59.3403C26.5039 59.367 26.5472 59.367 26.5739 59.3403L34.2306 51.6836C34.2382 51.676 34.2505 51.6763 34.2577 51.6841C34.2649 51.692 34.2772 51.6922 34.2848 51.6847L36.9908 48.9786C36.9984 48.9711 36.9981 48.9588 36.9903 48.9516Z"
    fill="#343B57"
  />
  <path
    fill-rule="evenodd"
    clip-rule="evenodd"
    d="M28.1756 23.0707L36.498 31.3931L36.5009 31.396L45.7927 40.6878L55.25 40.6878L46.9279 32.3657L46.9247 32.3625L37.633 23.0707H28.1756ZM46.9688 32.4029C47.2197 32.6137 47.5894 32.6177 47.8455 32.4043C47.6733 32.5478 47.4755 32.5745 47.3322 32.5585C47.2074 32.5446 47.0783 32.4949 46.9688 32.4029ZM36.0885 31.1995C36.2364 31.2149 36.3798 31.2784 36.4936 31.3888C36.3953 31.2939 36.2497 31.2188 36.0885 31.1995ZM26.1591 22.9872C25.6855 22.5137 26.021 21.7039 26.6907 21.7039H37.8877C38.0871 21.7039 38.2783 21.7831 38.4193 21.9241L47.8881 31.3929L47.8913 31.396L57.2665 40.7713C57.7401 41.2449 57.4047 42.0546 56.735 42.0546H45.5379C45.3386 42.0546 45.1473 41.9754 45.0063 41.8344L35.5376 32.3657L35.5344 32.3625L26.1591 22.9872ZM46.9705 31.3543C47.039 31.2972 47.1115 31.2586 47.183 31.2338C47.1074 31.2601 47.0353 31.3002 46.9705 31.3543Z"
    fill="#343B57"
  />
  <path
    fill-rule="evenodd"
    clip-rule="evenodd"
    d="M26.6905 23.0708C26.0207 23.0708 25.6853 22.261 26.1589 21.7874L35.5142 12.4322C35.6552 12.2912 35.8464 12.212 36.0458 12.212H47.2428C47.9125 12.212 48.2479 13.0217 47.7744 13.4953L38.4191 22.8506C38.2781 22.9916 38.0869 23.0708 37.8875 23.0708H26.6905ZM28.1754 21.7039H37.6327L45.7579 13.5788L36.3005 13.5788L28.1754 21.7039Z"
    fill="#343B57"
  />
  <path
    fill-rule="evenodd"
    clip-rule="evenodd"
    d="M26.6908 61.0386C26.021 61.0386 25.6856 60.2289 26.1592 59.7553L35.5345 50.38L35.5376 50.3768L45.0064 40.9081C45.1474 40.7671 45.3386 40.6879 45.538 40.6879H56.735C57.4048 40.6879 57.7402 41.4976 57.2666 41.9712L47.8913 51.3465L47.8881 51.3497L38.4194 60.8184C38.2784 60.9594 38.0872 61.0386 37.8878 61.0386H26.6908ZM46.9685 51.3865C47.1113 51.5065 47.2898 51.5585 47.4635 51.5444C47.2984 51.5595 47.122 51.5155 46.9685 51.3865ZM36.4557 50.3386C36.3947 50.2877 36.3273 50.2491 36.2565 50.2228C36.3239 50.2478 36.3917 50.2852 36.4557 50.3386ZM28.1757 59.6718H37.633L46.9248 50.38L46.9279 50.3769L55.2501 42.0547H45.7928L36.501 51.3465L36.4981 51.3494L28.1757 59.6718ZM36.0886 51.543C36.2497 51.5237 36.3954 51.4486 36.4936 51.3537C36.3799 51.4641 36.2365 51.5276 36.0886 51.543ZM47.3518 50.1821C47.1914 50.197 47.0418 50.2677 46.9344 50.3706C47.0515 50.2579 47.1997 50.1947 47.3518 50.1821Z"
    fill="#343B57"
  />
</svg>
